<?xml version="1.0" encoding="utf-8"?>
<!-- Generator: Adobe Illustrator 16.0.4, SVG Export Plug-In . SVG Version: 6.00 Build 0)  -->
<!DOCTYPE svg PUBLIC "-//W3C//DTD SVG 1.1//EN" "http://www.w3.org/Graphics/SVG/1.1/DTD/svg11.dtd">
<svg version="1.1" id="Ebene_1" xmlns="http://www.w3.org/2000/svg" xmlns:xlink="http://www.w3.org/1999/xlink" x="0px" y="0px"
	 width="595.28px" height="419.53px" viewBox="0 0 595.28 419.53" enable-background="new 0 0 595.28 419.53" xml:space="preserve">
<g>
	<defs>
		<rect id="SVGID_1_" x="6.973" y="169.602" width="580.536" height="116.927"/>
	</defs>
	<clipPath id="SVGID_2_">
		<use xlink:href="#SVGID_1_"  overflow="visible"/>
	</clipPath>
	<path clip-path="url(#SVGID_2_)" d="M415.848,234.446c1.263-7.152,7.572-14.584,17.247-14.584c9.114,0,15.564,6.59,15.705,14.584
		H415.848z M448.519,258.002c-2.664,5.891-8.272,8.833-15.144,8.833c-10.797,0-18.509-8.833-18.368-20.47h42.767
		c3.085,0,5.188-1.823,5.188-5.189v-4.486c-0.42-15.986-12.198-29.167-29.727-29.167c-19.91,0-32.11,15.986-32.11,35.476
		c0,20.894,11.639,36.598,32.251,36.598c13.461,0,24.258-7.151,28.745-18.931c1.263-3.364-0.562-6.17-3.926-6.17h-4.207
		C451.604,254.496,449.781,255.338,448.519,258.002 M340.692,229.818c3.225-4.627,8.833-9.255,15.984-9.255
		c10.798,0,17.809,10.656,17.809,22.996c0,12.901-6.45,22.855-17.809,22.855c-7.151,0-12.76-5.188-15.984-10.096V229.818z
		 M340.552,272.585c4.628,4.067,10.096,7.012,16.266,7.012c19.49,0.14,31.409-15.565,31.55-36.178
		c0.141-20.472-11.779-35.896-31.41-35.896c-6.31,0-12.059,2.945-16.265,6.311v-32.251c0-2.804-2.243-5.048-5.188-5.048h-3.645
		c-2.806,0-4.909,2.244-4.909,5.048v91.843c0,2.806,2.104,5.048,4.909,5.048h3.505c2.944,0,4.627-2.104,5.048-4.907L340.552,272.585
		z M285.587,187.612c0,5.329,3.926,9.114,9.115,9.114c5.188,0,9.255-3.785,9.255-9.114c0-5.328-4.067-9.254-9.255-9.254
		C289.513,178.358,285.587,182.284,285.587,187.612 M287.971,273.426c0,2.806,2.104,5.048,4.908,5.048h3.505
		c2.804,0,5.048-2.242,5.048-5.048v-59.733c0-2.804-1.823-5.047-4.908-5.047h-3.646c-2.804,0-4.908,2.244-4.908,5.047V273.426z
		 M233.566,273.426c0,2.806,2.244,5.048,5.048,5.048h3.646c3.226,0,5.048-2.242,5.048-5.048v-42.064
		c2.665-5.189,8.694-10.377,16.827-10.377h2.524c2.944,0,5.188-2.103,5.188-5.048v-3.786c0-2.804-1.963-4.627-4.908-4.627h-2.524
		c-6.45,0-13.602,4.346-17.107,9.254l-0.14-3.225c-0.28-2.804-1.963-4.908-4.908-4.908h-3.646c-2.804,0-5.048,2.244-5.048,5.047
		V273.426z M201.036,231.361c0.982,2.805,3.646,3.646,6.311,2.805l3.785-1.263c3.085-0.981,3.787-3.505,2.945-5.89
		c-3.926-11.498-13.32-19.491-28.043-19.491c-19.491,0-31.83,15.845-31.83,36.037c0,20.472,11.638,36.037,31.549,36.037
		c14.864,0,26.923-9.815,30.007-22.716c0.702-2.945-1.122-5.328-4.066-5.328h-4.346c-2.665,0-4.768,1.401-5.469,3.926
		c-2.104,6.73-8.133,10.937-15.565,11.078c-11.498,0.14-18.509-10.096-18.509-22.997c0-13.04,6.871-23.417,18.229-23.276
		C193.324,220.424,198.513,224.63,201.036,231.361 M98.117,257.302c-0.281-2.664-2.384-4.768-5.188-4.768h-4.066
		c-2.664,0-4.627,2.104-4.487,4.768c0.421,12.899,10.938,22.295,28.043,22.295c17.948,0,28.466-9.815,28.466-21.875
		c0-10.937-7.012-17.247-17.107-19.21c-5.328-0.981-11.638-2.244-16.686-3.646c-3.646-0.982-6.45-3.366-6.45-6.591
		c0-4.487,3.786-8.553,11.639-8.553c7.151,0,11.218,4.207,12.059,7.571c0.701,2.665,3.085,4.206,5.468,4.206h3.926
		c2.804,0,4.908-1.823,4.487-4.767c-1.542-11.078-11.217-19.21-25.801-19.21c-15.003,0-25.519,8.553-25.519,20.893
		c0,10.516,7.993,16.126,16.125,18.51c6.029,1.823,11.638,3.084,17.668,4.205c3.786,0.702,6.59,3.086,6.59,6.871
		c0,5.328-5.048,9.255-14.723,9.115C104.146,266.977,98.537,262.63,98.117,257.302 M31.091,266.274
		c-6.311-0.561-10.096-3.505-10.096-8.132c0-4.908,3.786-7.853,9.675-7.853c4.066,0,7.432-0.14,11.217-0.42
		c3.225-0.28,6.59-0.843,8.834-2.805v10.656c-0.702,4.768-4.767,7.853-11.218,8.553C36.839,266.557,33.895,266.557,31.091,266.274
		 M8.095,228.836c-0.561,2.946,1.542,4.77,4.207,4.77h4.206c2.945,0,5.048-1.543,5.609-4.207c1.122-5.469,5.609-9.256,14.303-9.256
		c9.675,0,14.443,5.749,14.302,13.741v0.702c-1.402,2.244-5.468,3.225-8.974,3.365c-3.506,0.14-6.45,0.28-10.797,0.28
		c-14.022,0-23.978,6.73-23.978,20.051c0,13.04,9.535,20.332,24.118,21.034c2.664,0.14,5.188,0,7.572-0.142
		c5.468-0.28,11.357-2.805,14.442-6.87c1.402,3.085,6.59,6.169,10.937,6.169h2.804c2.945,0,5.048-1.821,5.048-4.768v-3.925
		c0-2.805-1.963-4.628-4.627-4.628c-1.682,0-2.944-1.122-2.944-2.804v-27.483c0-16.266-11.779-27.343-28.044-27.343
		C21.696,207.523,10.338,215.655,8.095,228.836"/>
	<path clip-path="url(#SVGID_2_)" d="M585.82,216.386c-1.271-5.163-3.195-10.098-5.719-14.665
		c-2.625-4.757-5.823-9.102-9.505-12.903c-3.819-3.955-8.108-7.37-12.743-10.145c-4.785-2.876-9.9-5.098-15.215-6.607
		c-5.469-1.545-11.072-2.373-16.666-2.459c-5.722-0.064-11.451,0.593-17.018,2c-3.65,0.935-7.178,2.193-10.572,3.696l5.607,11.476
		c2.613-1.129,5.32-2.083,8.114-2.798c4.465-1.129,9.058-1.667,13.683-1.606c4.475,0.069,8.976,0.736,13.373,1.977
		c4.221,1.199,8.297,2.972,12.125,5.271c3.681,2.204,7.086,4.916,10.131,8.07c2.902,2.998,5.428,6.429,7.508,10.198
		c1.982,3.589,3.495,7.474,4.498,11.55c0.956,3.874,1.396,7.922,1.308,12.035c-0.081,3.898-0.695,7.834-1.822,11.685
		c-1.088,3.69-2.67,7.248-4.702,10.571c-1.945,3.18-4.339,6.126-7.115,8.755c-2.651,2.512-5.652,4.679-8.921,6.443
		c-3.127,1.688-6.502,2.961-10.041,3.791c-3.353,0.79-6.844,1.13-10.398,1.019c-3.349-0.108-6.726-0.675-10.024-1.679
		c-3.139-0.96-6.166-2.348-8.997-4.125c-2.679-1.684-5.172-3.759-7.399-6.157c-2.093-2.262-3.897-4.834-5.366-7.643
		c-1.388-2.658-2.427-5.525-3.092-8.532c-0.629-2.822-0.877-5.763-0.738-8.747c0.129-2.789,0.646-5.604,1.541-8.384
		c0.809-2.536,2.031-5.097,3.538-7.408c1.419-2.182,3.214-4.268,5.194-6.04c1.871-1.675,4.012-3.124,6.349-4.3
		c2.169-1.084,4.589-1.914,7.003-2.399c2.257-0.456,4.722-0.617,7.112-0.461c2.199,0.145,4.52,0.62,6.707,1.371
		c1.995,0.688,4.024,1.712,5.873,2.966c1.666,1.129,3.276,2.582,4.669,4.218c1.261,1.469,2.379,3.212,3.244,5.052
		c0.789,1.672,1.382,3.562,1.716,5.489c0.303,1.7,0.371,3.583,0.199,5.436c-0.155,1.646-0.567,3.397-1.178,5.021
		c-0.578,1.512-1.393,3.004-2.357,4.319c-0.887,1.213-1.999,2.364-3.221,3.333c-1.078,0.854-2.41,1.643-3.735,2.207
		c-1.185,0.5-2.586,0.877-3.921,1.057c-1.205,0.153-2.557,0.142-3.816-0.036c-1.102-0.155-2.298-0.497-3.362-0.963
		c-0.92-0.404-1.919-1.023-2.747-1.704c-0.726-0.596-1.454-1.387-2.009-2.186c-0.47-0.672-0.905-1.536-1.206-2.409
		c-0.23-0.66-0.395-1.526-0.438-2.34c-0.035-0.613,0.039-1.427,0.18-2.057c0.123-0.527,0.391-1.201,0.689-1.733
		c0.202-0.363,0.578-0.844,0.977-1.229c0.217-0.215,0.638-0.514,0.948-0.675c0.198-0.104,0.651-0.261,0.896-0.311
		c0.141-0.027,0.507-0.028,0.719-0.006c3.501,0.422,6.669-2.109,7.072-5.612c0.401-3.504-2.111-6.67-5.614-7.073
		c-0.692-0.079-2.517-0.227-4.562,0.147c-1.505,0.3-3.101,0.852-4.392,1.52c-0.86,0.447-2.531,1.426-4.003,2.888
		c-1.245,1.203-2.38,2.672-3.188,4.124c-0.876,1.564-1.578,3.355-1.988,5.111c-0.413,1.846-0.583,3.846-0.483,5.609
		c0.075,1.411,0.334,3.571,1.127,5.829c0.678,1.971,1.648,3.886,2.795,5.523c1.221,1.756,2.735,3.396,4.372,4.742
		c1.74,1.432,3.721,2.653,5.735,3.538c2.137,0.933,4.456,1.593,6.696,1.908c2.387,0.342,4.89,0.358,7.266,0.053
		c2.495-0.334,4.997-1.01,7.251-1.964c2.396-1.023,4.706-2.392,6.678-3.955c2.104-1.67,4.038-3.674,5.588-5.793
		c1.624-2.216,3.001-4.74,3.993-7.336c1.017-2.705,1.69-5.591,1.953-8.362c0.28-3.029,0.165-6.008-0.337-8.834
		c-0.525-3.018-1.474-6.037-2.74-8.716c-1.358-2.896-3.076-5.563-5.088-7.908c-2.145-2.518-4.571-4.704-7.214-6.492
		c-2.801-1.901-5.788-3.405-8.88-4.471c-3.294-1.132-6.666-1.818-10.036-2.041c-3.552-0.223-7.076,0.003-10.462,0.688
		c-3.555,0.715-6.982,1.891-10.204,3.503c-3.358,1.688-6.436,3.777-9.141,6.2c-2.845,2.544-5.328,5.434-7.379,8.587
		c-2.15,3.299-3.833,6.829-4.997,10.477c-1.237,3.84-1.956,7.774-2.138,11.692c-0.191,4.113,0.156,8.188,1.028,12.104
		c0.906,4.095,2.332,8.022,4.24,11.679c1.992,3.812,4.453,7.311,7.319,10.409c2.993,3.225,6.348,6.012,9.974,8.29
		c3.784,2.376,7.838,4.234,12.062,5.527c4.381,1.332,8.866,2.079,13.336,2.227c0.582,0.019,1.165,0.027,1.746,0.027
		c4.078,0,8.107-0.464,11.988-1.38c4.626-1.085,9.061-2.761,13.182-4.981c4.257-2.297,8.174-5.128,11.641-8.411
		c3.59-3.402,6.694-7.226,9.227-11.362c2.615-4.277,4.652-8.861,6.061-13.637c1.445-4.943,2.231-9.996,2.335-15.011
		C587.607,226.516,587.045,221.347,585.82,216.386"/>
</g>
</svg>
