<?xml version="1.0" encoding="utf-8"?>
<!-- Generator: Adobe Illustrator 16.0.4, SVG Export Plug-In . SVG Version: 6.00 Build 0)  -->
<!DOCTYPE svg PUBLIC "-//W3C//DTD SVG 1.1//EN" "http://www.w3.org/Graphics/SVG/1.1/DTD/svg11.dtd">
<svg version="1.1" id="Ebene_1" xmlns="http://www.w3.org/2000/svg" xmlns:xlink="http://www.w3.org/1999/xlink" x="0px" y="0px"
	 width="595.28px" height="419.53px" viewBox="0 0 595.28 419.53" enable-background="new 0 0 595.28 419.53" xml:space="preserve">
<g>
	<path d="M362.878,195.61c-1.647-6.692-4.142-13.088-7.412-19.008c-3.401-6.166-7.549-11.797-12.319-16.725
		c-4.951-5.127-10.511-9.553-16.519-13.149c-6.202-3.728-12.833-6.607-19.722-8.564c-7.088-2.003-14.352-3.075-21.602-3.188
		c-7.417-0.083-14.843,0.769-22.059,2.592c-4.731,1.212-9.302,2.843-13.703,4.791l7.269,14.875
		c3.387-1.463,6.895-2.699,10.517-3.627c5.788-1.463,11.74-2.16,17.735-2.082c5.8,0.09,11.635,0.954,17.334,2.562
		c5.471,1.554,10.754,3.852,15.717,6.833c4.77,2.856,9.184,6.372,13.131,10.46c3.762,3.886,7.035,8.333,9.73,13.219
		c2.57,4.651,4.53,9.687,5.832,14.971c1.237,5.021,1.809,10.269,1.693,15.6c-0.105,5.053-0.9,10.154-2.362,15.145
		c-1.409,4.783-3.46,9.395-6.094,13.703c-2.521,4.121-5.625,7.939-9.224,11.348c-3.437,3.256-7.326,6.064-11.562,8.352
		c-4.053,2.188-8.428,3.838-13.016,4.914c-4.344,1.023-8.87,1.465-13.477,1.32c-4.341-0.141-8.718-0.875-12.994-2.176
		c-4.068-1.244-7.992-3.043-11.661-5.348c-3.473-2.182-6.704-4.871-9.592-7.98c-2.712-2.932-5.052-6.266-6.955-9.906
		c-1.799-3.445-3.146-7.162-4.008-11.059c-0.815-3.658-1.137-7.471-0.957-11.338c0.167-3.615,0.837-7.264,1.997-10.867
		c1.049-3.288,2.634-6.606,4.587-9.602c1.839-2.828,4.165-5.532,6.732-7.829c2.425-2.172,5.2-4.05,8.23-5.574
		c2.81-1.405,5.947-2.48,9.076-3.11c2.926-0.591,6.12-0.8,9.219-0.598c2.85,0.188,5.858,0.804,8.694,1.777
		c2.586,0.892,5.217,2.22,7.612,3.845c2.159,1.464,4.247,3.347,6.052,5.468c1.635,1.903,3.084,4.162,4.205,6.548
		c1.023,2.166,1.791,4.617,2.225,7.114c0.392,2.204,0.48,4.645,0.258,7.045c-0.201,2.135-0.735,4.404-1.526,6.51
		c-0.75,1.959-1.806,3.893-3.056,5.598c-1.149,1.572-2.592,3.064-4.174,4.32c-1.398,1.107-3.125,2.129-4.843,2.861
		c-1.534,0.648-3.352,1.137-5.082,1.369c-1.563,0.199-3.315,0.184-4.947-0.047c-1.428-0.201-2.979-0.645-4.357-1.248
		c-1.193-0.523-2.489-1.326-3.561-2.209c-0.942-0.771-1.886-1.797-2.605-2.832c-0.609-0.871-1.173-1.992-1.563-3.123
		c-0.299-0.855-0.512-1.979-0.568-3.033c-0.045-0.795,0.052-1.85,0.234-2.666c0.16-0.684,0.506-1.557,0.893-2.246
		c0.262-0.471,0.75-1.094,1.267-1.594c0.28-0.279,0.826-0.666,1.228-0.875c0.257-0.135,0.845-0.338,1.163-0.402
		c0.182-0.035,0.657-0.037,0.931-0.008c4.538,0.547,8.644-2.734,9.167-7.275c0.521-4.541-2.736-8.646-7.277-9.168
		c-0.898-0.103-3.262-0.293-5.914,0.191c-1.95,0.389-4.019,1.104-5.693,1.97c-1.114,0.58-3.28,1.848-5.187,3.743
		c-1.614,1.559-3.085,3.463-4.134,5.345c-1.135,2.027-2.045,4.35-2.577,6.625c-0.535,2.393-0.756,4.984-0.627,7.271
		c0.099,1.828,0.434,4.629,1.461,7.555c0.879,2.555,2.137,5.037,3.623,7.16c1.583,2.275,3.546,4.402,5.667,6.146
		c2.256,1.855,4.823,3.439,7.435,4.586c2.768,1.209,5.775,2.064,8.678,2.473c3.095,0.443,6.339,0.465,9.418,0.068
		c3.234-0.432,6.479-1.309,9.398-2.545c3.105-1.326,6.101-3.1,8.656-5.127c2.727-2.164,5.233-4.762,7.242-7.508
		c2.105-2.873,3.891-6.145,5.178-9.51c1.316-3.506,2.19-7.246,2.53-10.838c0.363-3.928,0.214-7.788-0.437-11.451
		c-0.68-3.911-1.91-7.825-3.553-11.298c-1.761-3.754-3.986-7.211-6.595-10.25c-2.778-3.264-5.925-6.097-9.351-8.415
		c-3.629-2.464-7.502-4.413-11.51-5.795c-4.27-1.468-8.64-2.356-13.008-2.646c-4.605-0.289-9.173,0.005-13.562,0.892
		c-4.606,0.927-9.049,2.45-13.225,4.54c-4.354,2.188-8.342,4.896-11.849,8.036c-3.687,3.298-6.906,7.043-9.564,11.13
		c-2.787,4.276-4.968,8.853-6.477,13.58c-1.604,4.977-2.535,10.077-2.771,15.155c-0.247,5.332,0.203,10.613,1.333,15.689
		c1.174,5.307,3.022,10.398,5.496,15.137c2.583,4.941,5.772,9.477,9.487,13.492c3.88,4.18,8.228,7.793,12.928,10.746
		c4.905,3.08,10.16,5.488,15.634,7.164c5.678,1.727,11.493,2.695,17.286,2.887c0.755,0.023,1.51,0.035,2.263,0.035
		c5.287,0,10.509-0.602,15.541-1.789c5.996-1.406,11.744-3.578,17.084-6.457c5.519-2.977,10.595-6.646,15.089-10.902
		c4.653-4.41,8.678-9.365,11.959-14.727c3.39-5.545,6.03-11.486,7.856-17.676c1.873-6.408,2.892-12.957,3.026-19.457
		C365.195,208.741,364.465,202.041,362.878,195.61"/>
</g>
</svg>
