<?xml version="1.0" encoding="utf-8"?>
<!-- Generator: Adobe Illustrator 16.0.4, SVG Export Plug-In . SVG Version: 6.00 Build 0)  -->
<!DOCTYPE svg PUBLIC "-//W3C//DTD SVG 1.1//EN" "http://www.w3.org/Graphics/SVG/1.1/DTD/svg11.dtd">
<svg version="1.1" id="Ebene_1" xmlns="http://www.w3.org/2000/svg" xmlns:xlink="http://www.w3.org/1999/xlink" x="0px" y="0px"
	 width="595.279px" height="419.531px" viewBox="0 0 595.279 419.531" enable-background="new 0 0 595.279 419.531"
	 xml:space="preserve">
<g>
	<defs>
		<rect id="SVGID_1_" x="6.973" y="169.602" width="580.536" height="116.927"/>
	</defs>
	<clipPath id="SVGID_2_">
		<use xlink:href="#SVGID_1_"  overflow="visible"/>
	</clipPath>
	<path clip-path="url(#SVGID_2_)" d="M415.848,234.446c1.263-7.151,7.572-14.584,17.247-14.584c9.114,0,15.563,6.591,15.705,14.584
		H415.848z M448.519,258.001c-2.664,5.892-8.272,8.834-15.144,8.834c-10.798,0-18.51-8.834-18.368-20.471h42.767
		c3.085,0,5.188-1.822,5.188-5.189v-4.485c-0.421-15.985-12.198-29.167-29.728-29.167c-19.91,0-32.109,15.986-32.109,35.477
		c0,20.894,11.639,36.598,32.25,36.598c13.462,0,24.259-7.15,28.745-18.932c1.264-3.363-0.562-6.17-3.926-6.17h-4.207
		C451.604,254.496,449.781,255.337,448.519,258.001 M340.692,229.818c3.226-4.627,8.833-9.255,15.984-9.255
		c10.798,0,17.809,10.655,17.809,22.996c0,12.901-6.449,22.854-17.809,22.854c-7.151,0-12.76-5.188-15.984-10.096V229.818z
		 M340.552,272.585c4.628,4.066,10.096,7.012,16.266,7.012c19.49,0.14,31.409-15.564,31.551-36.178
		c0.141-20.473-11.779-35.896-31.41-35.896c-6.311,0-12.06,2.945-16.266,6.311v-32.25c0-2.804-2.243-5.048-5.188-5.048h-3.646
		c-2.806,0-4.908,2.244-4.908,5.048v91.842c0,2.807,2.104,5.049,4.908,5.049h3.506c2.943,0,4.627-2.104,5.048-4.907L340.552,272.585
		z M285.587,187.612c0,5.329,3.926,9.114,9.115,9.114c5.188,0,9.255-3.785,9.255-9.114c0-5.328-4.067-9.254-9.255-9.254
		C289.513,178.358,285.587,182.284,285.587,187.612 M287.971,273.425c0,2.807,2.104,5.049,4.908,5.049h3.505
		c2.804,0,5.048-2.242,5.048-5.049v-59.732c0-2.804-1.823-5.047-4.908-5.047h-3.646c-2.804,0-4.908,2.244-4.908,5.047
		L287.971,273.425L287.971,273.425z M233.566,273.425c0,2.807,2.244,5.049,5.048,5.049h3.646c3.226,0,5.048-2.242,5.048-5.049
		v-42.063c2.665-5.188,8.694-10.377,16.827-10.377h2.524c2.943,0,5.188-2.103,5.188-5.048v-3.786c0-2.804-1.963-4.627-4.908-4.627
		h-2.523c-6.45,0-13.603,4.347-17.107,9.254l-0.14-3.226c-0.28-2.803-1.963-4.907-4.908-4.907h-3.646
		c-2.804,0-5.048,2.244-5.048,5.047V273.425L233.566,273.425z M201.036,231.361c0.981,2.805,3.646,3.646,6.311,2.805l3.785-1.263
		c3.085-0.981,3.787-3.505,2.945-5.89c-3.927-11.498-13.32-19.491-28.043-19.491c-19.491,0-31.83,15.845-31.83,36.037
		c0,20.472,11.638,36.037,31.549,36.037c14.864,0,26.923-9.815,30.007-22.716c0.702-2.945-1.122-5.328-4.066-5.328h-4.346
		c-2.665,0-4.768,1.4-5.469,3.926c-2.104,6.73-8.133,10.938-15.565,11.078c-11.498,0.14-18.509-10.096-18.509-22.997
		c0-13.04,6.871-23.417,18.229-23.276C193.324,220.423,198.513,224.63,201.036,231.361 M98.117,257.302
		c-0.281-2.664-2.385-4.768-5.188-4.768h-4.066c-2.664,0-4.627,2.104-4.486,4.768c0.421,12.898,10.938,22.295,28.043,22.295
		c17.948,0,28.466-9.814,28.466-21.875c0-10.938-7.012-17.247-17.107-19.21c-5.327-0.981-11.638-2.244-16.686-3.646
		c-3.646-0.982-6.45-3.367-6.45-6.592c0-4.486,3.786-8.553,11.639-8.553c7.151,0,11.219,4.207,12.06,7.57
		c0.701,2.666,3.085,4.207,5.468,4.207h3.926c2.805,0,4.908-1.824,4.487-4.768c-1.542-11.078-11.217-19.21-25.801-19.21
		c-15.003,0-25.52,8.554-25.52,20.894c0,10.516,7.993,16.125,16.125,18.51c6.029,1.822,11.639,3.084,17.668,4.205
		c3.786,0.701,6.591,3.086,6.591,6.871c0,5.328-5.049,9.254-14.724,9.115C104.146,266.977,98.537,262.63,98.117,257.302
		 M31.091,266.274c-6.312-0.562-10.096-3.505-10.096-8.132c0-4.908,3.785-7.854,9.675-7.854c4.065,0,7.432-0.14,11.217-0.42
		c3.225-0.279,6.59-0.843,8.834-2.805v10.656c-0.702,4.768-4.767,7.854-11.218,8.553C36.839,266.557,33.895,266.557,31.091,266.274
		 M8.095,228.835c-0.561,2.947,1.542,4.771,4.207,4.771h4.206c2.945,0,5.048-1.543,5.609-4.207
		c1.121-5.469,5.608-9.256,14.303-9.256c9.675,0,14.442,5.749,14.302,13.741v0.701c-1.402,2.244-5.468,3.226-8.974,3.365
		c-3.506,0.141-6.45,0.28-10.797,0.28c-14.022,0-23.979,6.729-23.979,20.052c0,13.039,9.535,20.332,24.118,21.033
		c2.664,0.141,5.188,0,7.572-0.143c5.468-0.279,11.356-2.805,14.441-6.869c1.402,3.085,6.59,6.169,10.938,6.169h2.804
		c2.945,0,5.048-1.821,5.048-4.769v-3.924c0-2.806-1.963-4.629-4.627-4.629c-1.682,0-2.944-1.121-2.944-2.804v-27.483
		c0-16.266-11.778-27.343-28.044-27.343C21.696,207.523,10.338,215.655,8.095,228.835"/>
</g>
<g>
	<defs>
		<rect id="SVGID_3_" x="6.973" y="169.602" width="580.536" height="116.927"/>
	</defs>
	<clipPath id="SVGID_4_">
		<use xlink:href="#SVGID_3_"  overflow="visible"/>
	</clipPath>
</g>
<g>
	<path d="M519.088,182.75c1.375-0.154,2.759-0.25,4.148-0.297l-0.362-12.773c-1.799,0.062-3.593,0.197-5.381,0.404L519.088,182.75z
		 M527.134,220.031c-0.267-0.029-0.7-0.071-1.249-0.087c-0.88-0.028-2.051,0.002-3.311,0.233c-1.508,0.298-3.103,0.854-4.393,1.523
		c-0.861,0.445-2.532,1.424-4.005,2.886c-1.244,1.203-2.38,2.673-3.188,4.123c-0.496,0.885-0.924,1.843-1.286,2.822l12.254,3.784
		c0.061-0.126,0.114-0.264,0.182-0.379c0.2-0.364,0.574-0.844,0.976-1.228c0.217-0.217,0.636-0.514,0.948-0.676
		c0.197-0.105,0.648-0.263,0.895-0.31c0.114-0.023,0.382-0.028,0.59-0.015c0.047,0.002,0.093,0.002,0.129,0.007
		c3.502,0.422,6.671-2.107,7.073-5.613C533.15,223.599,530.636,220.434,527.134,220.031 M509.485,171.556
		c-0.965,0.248-1.918,0.52-2.867,0.811l3.677,12.229c0.774-0.238,1.552-0.465,2.342-0.666c2.006-0.507,5.735-1.088,5.557-1.064
		l-1.659-12.666C516.711,170.178,511.983,170.925,509.485,171.556 M574.729,231.505c-0.075,3.552-0.609,7.126-1.555,10.646
		l12.34,3.361c1.215-4.536,1.887-9.148,1.982-13.733c0.025-1.19,0.01-2.376-0.033-3.558l-12.763,0.422
		C574.735,229.595,574.749,230.547,574.729,231.505 M498.38,175.332l5.607,11.479c0.501-0.219,1.01-0.424,1.519-0.627l-4.727-11.859
		C499.972,174.647,499.171,174.982,498.38,175.332 M561.09,262.52c-2.652,2.512-5.652,4.679-8.923,6.44
		c-3.127,1.689-6.503,2.963-10.041,3.793c-3.351,0.79-6.843,1.133-10.397,1.018c-1.92-0.06-3.849-0.292-5.767-0.65l-2.308,12.554
		c2.544,0.472,5.104,0.776,7.664,0.862c0.58,0.019,1.162,0.024,1.742,0.024c4.08,0,8.11-0.465,11.988-1.378
		c4.625-1.086,9.062-2.764,13.184-4.982c4.258-2.295,8.175-5.127,11.641-8.409c0.533-0.507,1.034-1.042,1.55-1.567l-9.139-8.914
		C561.889,261.717,561.502,262.127,561.09,262.52 M568.204,253.764c-1.188,1.943-2.562,3.789-4.072,5.536l9.695,8.305
		c1.949-2.264,3.73-4.653,5.274-7.177c1.848-3.021,3.401-6.199,4.653-9.488l-11.935-4.569
		C570.85,248.925,569.647,251.407,568.204,253.764 M585.971,217.079l-12.446,2.881c0.341,1.46,0.604,2.943,0.799,4.444l12.673-1.697
		C586.747,220.808,586.404,218.927,585.971,217.079 M542.637,172.095c-1.34-0.377-2.687-0.713-4.038-1.004l-2.693,12.482
		c1.091,0.237,2.175,0.505,3.253,0.809c0.679,0.194,1.349,0.426,2.023,0.649l4.046-12.131
		C544.368,172.616,543.507,172.343,542.637,172.095 M528.501,169.732l-0.751,12.769c1.538,0.083,3.074,0.214,4.607,0.436
		l1.805-12.643C532.281,170.021,530.393,169.835,528.501,169.732 M580.102,201.75c-2.626-4.757-5.824-9.101-9.507-12.903
		c-3.818-3.953-8.107-7.369-12.74-10.146c-2.381-1.429-4.843-2.696-7.369-3.796l-5.08,11.717c2.012,0.878,3.975,1.888,5.878,3.032
		c3.683,2.203,7.086,4.916,10.133,8.068c2.9,2.998,5.427,6.43,7.507,10.2c1.355,2.449,2.471,5.05,3.375,7.742l12.098-4.121
		C583.249,208.139,581.818,204.859,580.102,201.75 M531.03,248.33c-0.688-0.098-1.407-0.274-2.113-0.499l-3.888,12.154
		c1.395,0.446,2.816,0.789,4.215,0.987c0.933,0.136,1.886,0.204,2.842,0.236l0.135-12.767
		C531.818,248.416,531.422,248.384,531.03,248.33 M538.768,247.306c-1.088,0.461-2.356,0.807-3.59,1.002l1.932,12.615
		c2.294-0.358,4.577-0.985,6.653-1.863c0.313-0.135,0.623-0.288,0.931-0.436l-5.345-11.588
		C539.156,247.128,538.963,247.225,538.768,247.306 M521.705,272.095c-3.141-0.959-6.169-2.349-8.997-4.127
		c-2.683-1.684-5.173-3.757-7.402-6.157c-0.494-0.532-0.968-1.089-1.432-1.655l-9.938,8.017c0.644,0.794,1.312,1.569,2.007,2.318
		c2.994,3.229,6.351,6.016,9.975,8.294c3.776,2.37,7.824,4.225,12.037,5.518l3.779-12.197
		C521.725,272.098,521.715,272.096,521.705,272.095 M524.923,245.663c-0.729-0.596-1.46-1.387-2.013-2.187
		c-0.47-0.671-0.903-1.533-1.205-2.407c-0.229-0.66-0.394-1.527-0.438-2.339c-0.002-0.009,0-0.016,0-0.021l-12.76,0.114
		c0.005,0.202,0,0.41,0.011,0.608c0.076,1.411,0.333,3.571,1.128,5.828c0.677,1.972,1.648,3.887,2.795,5.524
		c1.222,1.754,2.734,3.396,4.371,4.743c0.592,0.483,1.215,0.935,1.851,1.365l7.059-10.633
		C525.446,246.069,525.173,245.869,524.923,245.663 M499.942,254.168c-1.387-2.659-2.426-5.527-3.093-8.531
		c-0.631-2.822-0.876-5.763-0.738-8.749c0.13-2.788,0.646-5.605,1.542-8.384c0.81-2.537,2.03-5.098,3.537-7.408
		c0.197-0.303,0.418-0.596,0.627-0.894l-10.385-7.42c-0.317,0.447-0.645,0.887-0.942,1.346c-2.149,3.297-3.832,6.831-4.995,10.477
		c-1.237,3.84-1.958,7.774-2.139,11.692c-0.191,4.115,0.156,8.188,1.027,12.105c0.907,4.096,2.33,8.021,4.239,11.682
		c0.576,1.099,1.197,2.159,1.851,3.204l10.814-6.779C500.815,255.746,500.361,254.972,499.942,254.168 M506.385,215.056
		c1.871-1.675,4.013-3.124,6.35-4.301c0.679-0.338,1.389-0.642,2.109-0.93l-4.726-11.859c-1.057,0.419-2.097,0.868-3.108,1.375
		c-3.357,1.688-6.437,3.778-9.142,6.199c-1.511,1.353-2.915,2.81-4.212,4.345l9.735,8.265
		C504.323,217.053,505.324,216.006,506.385,215.056 M538.66,211.746l6.869-10.757c-1.771-1.12-3.602-2.104-5.488-2.904
		l-4.987,11.759C536.281,210.365,537.496,211.015,538.66,211.746 M544.099,216.451c1.263,1.47,2.38,3.214,3.243,5.053
		c0.788,1.67,1.383,3.564,1.719,5.489c0.302,1.7,0.369,3.582,0.196,5.438c-0.154,1.644-0.565,3.395-1.177,5.018
		c-0.578,1.511-1.393,3.005-2.356,4.319c-0.889,1.215-2,2.365-3.224,3.335c-0.011,0.007-0.022,0.017-0.034,0.022l7.857,10.063
		c0.039-0.026,0.079-0.057,0.116-0.084c2.104-1.669,4.038-3.673,5.587-5.794c1.624-2.215,3.002-4.738,3.994-7.335
		c1.015-2.705,1.69-5.59,1.952-8.362c0.28-3.029,0.166-6.008-0.337-8.834c-0.525-3.018-1.476-6.039-2.74-8.718
		c-1.358-2.895-3.075-5.562-5.09-7.907c-1.05-1.238-2.173-2.39-3.354-3.457l-8.577,9.463
		C542.658,214.867,543.405,215.637,544.099,216.451 M518.809,208.576l-2.863-12.439c0.422-0.098,0.842-0.213,1.27-0.297
		c3.387-0.686,6.912-0.911,10.459-0.687c2.167,0.142,4.326,0.497,6.471,1.016l-2.969,12.417c-1.45-0.353-2.91-0.595-4.326-0.69
		c-2.391-0.156-4.854,0.005-7.113,0.461C519.429,208.419,519.117,208.503,518.809,208.576"/>
</g>
</svg>
